<?xml version="1.0" encoding="utf-8"?>
<!-- Generator: Adobe Illustrator 16.0.0, SVG Export Plug-In . SVG Version: 6.00 Build 0)  -->
<!DOCTYPE svg PUBLIC "-//W3C//DTD SVG 1.1//EN" "http://www.w3.org/Graphics/SVG/1.1/DTD/svg11.dtd">
<svg version="1.1" id="图层_1" xmlns="http://www.w3.org/2000/svg" xmlns:xlink="http://www.w3.org/1999/xlink" x="0px" y="0px"
	 width="42px" height="42px" viewBox="0 0 42 42" enable-background="new 0 0 42 42" xml:space="preserve">
<path fill="#E99315" d="M39.85,15.025c0.157,2.034-0.187,4.471-1.529,4.59c-2.192,0.195-1.049-2.219-1.02-3.672
	c0.08-4.213-3.517-7.14-7.039-7.14c-0.999,0-3.316,0.676-2.959-1.429c0.16-0.928,0.946-0.915,1.733-1.019
	C34.961,5.565,39.434,9.641,39.85,15.025z"/>
<path fill="#D52A2C" d="M30.159,19.922c2.548,1.393,5.607,2.087,5.101,6.223c-0.122,0.991-0.722,2.315-1.326,3.161
	c-4.305,6.026-17.291,8.56-25.4,3.979c-2.72-1.537-5.534-3.785-5.1-8.264c0.374-3.854,2.966-6.84,5.509-9.383
	c2.426-2.428,4.985-4.327,8.466-5.202c3.777-0.95,4.894,2.199,3.876,5.304c2.188-0.146,6.824-2.589,8.874-0.204
	C31.063,16.586,30.717,18.468,30.159,19.922z M27.405,29.713c0.815-0.925,1.636-2.334,1.631-3.977
	c-0.011-5.069-6.396-6.942-11.423-6.529c-2.75,0.226-4.599,0.806-6.529,1.938c-1.575,0.924-3.418,2.428-3.876,4.691
	c-1.031,5.089,4.503,7.481,8.568,7.753C20.473,33.905,25.174,32.247,27.405,29.713z"/>
<path fill="#E99315" d="M34.851,15.025c0.214,1.553-0.23,2.899-1.121,2.958c-1.486,0.099-0.931-1.018-1.021-2.346
	c-0.057-0.818-0.734-1.763-1.326-2.041c-1.161-0.543-2.958,0.396-2.958-1.224c0-1.203,1.043-1.077,1.632-1.123
	C32.641,11.055,34.55,12.834,34.851,15.025z"/>
<path d="M22.917,25.226c2.173,6.568-9.15,9.623-11.221,3.979c-1.385-3.775,1.941-6.777,5.406-7.141
	C20.061,21.754,22.266,23.263,22.917,25.226z M17.714,26.348c0.461,0.799,1.521,0.226,1.428-0.407
	C19.032,25.209,17.705,25.316,17.714,26.348z M15.878,29.817c1.904-0.453,2.16-4.039-0.714-3.367
	C12.75,27.015,13.217,30.449,15.878,29.817z"/>
</svg>
